<svg xmlns="http://www.w3.org/2000/svg" width="89" height="93" viewBox="0 0 89 93">
    <g fill="#FFF" fill-rule="nonzero">
        <path d="M86.033 58.2V23.25c0-4.273-3.327-7.75-7.416-7.75H59.333V7.75c0-4.273-3.327-7.75-7.416-7.75h-17.8C30.027 0 26.7 3.477 26.7 7.75v7.75H7.417C3.327 15.5 0 18.977 0 23.25V77.5c0 4.273 3.327 7.75 7.417 7.75h42.795C54.29 89.995 60.182 93 66.75 93 79.019 93 89 82.57 89 69.75c0-4.205-1.09-8.142-2.967-11.55zM29.667 7.75c0-2.564 1.996-4.65 4.45-4.65h17.8c2.453 0 4.45 2.086 4.45 4.65v7.75H53.4V7.75c0-.856-.663-1.55-1.483-1.55h-17.8c-.82 0-1.484.694-1.484 1.55v7.75h-2.966V7.75zM50.433 9.3v6.2H35.6V9.3h14.833zM2.967 26.35v-3.1c0-2.564 1.996-4.65 4.45-4.65h71.2c2.453 0 4.45 2.086 4.45 4.65V40.3c0 4.273-3.327 7.75-7.417 7.75h-.978c-2.465-.986-5.129-1.55-7.922-1.55s-5.457.564-7.922 1.55h-6.911V43.4c0-.856-.663-1.55-1.484-1.55H35.6c-.82 0-1.483.694-1.483 1.55v4.65H10.383c-4.09 0-7.416-3.477-7.416-7.75V26.35zm80.1 21.528v6.118c-1.163-1.315-2.45-2.505-3.873-3.511a10.358 10.358 0 0 0 3.873-2.607zM48.95 44.95v3.1H37.083v-3.1H48.95zm-31.15 6.2v4.65h-4.45v-4.65h4.45zm-10.383 31c-2.454 0-4.45-2.086-4.45-4.65V47.878c1.886 2.017 4.512 3.272 7.416 3.272v6.2c0 .856.663 1.55 1.484 1.55h7.416c.82 0 1.484-.694 1.484-1.55v-6.2h32.689c-5.424 4.244-8.956 10.991-8.956 18.6 0 4.56 1.282 8.806 3.462 12.4H7.417zm78.54-10.85c-.723 9.874-8.275 17.765-17.724 18.52v-3.02h-2.966v3.02c-5.355-.428-10.108-3.136-13.35-7.213v-.457h-.336a20.55 20.55 0 0 1-4.04-10.85h2.892v-3.1h-2.89c.723-9.873 8.275-17.765 17.724-18.521V52.7h2.966v-3.021c9.45.756 17 8.648 17.725 18.521h-2.891v3.1h2.89z"/>
        <path d="M67.855 68.52V55.382H65v13.771c0 .406.15.796.418 1.082l8.564 9.18L76 77.253l-8.145-8.732zM65 40.753h3v3.135h-3zM71 40.753h3v3.135h-3zM59 40.753h3v3.135h-3z"/>
    </g>
</svg>
