<svg xmlns="http://www.w3.org/2000/svg" width="76" height="67" viewBox="0 0 76 67">
    <g fill="#F02355" fill-rule="nonzero">
        <path d="M28.581 44.124l12.457 3.639a1.463 1.463 0 0 1-.08.244c-.333.872-1.015 1.36-2.126 1.53-4.094.626-10.886.228-10.95.228-1.046-.06-1.95.704-2.014 1.713-.064 1.009.73 1.88 1.777 1.941.301.015 7.267.428 11.79-.275 4.49-.688 5.776-4.495 5.538-6.895a1.856 1.856 0 0 0-1.349-1.59l-13.948-4.066c-6.887-2.003-14.44 1.697-14.757 1.85-.032.015-.08.03-.112.06L.923 50.592a1.8 1.8 0 0 0-.65 2.522c.364.566.983.887 1.634.887.333 0 .666-.092.984-.26l13.82-8.026c.604-.306 6.681-3.103 11.87-1.59z"/>
        <path d="M75.766 40.72c-1.092-2.012-4.494-5.223-9.653-2.923-4.874 2.189-15.176 7.189-15.287 7.237a1.914 1.914 0 0 0-.886 2.556c.459.958 1.598 1.358 2.532.895.11-.048 10.35-5.033 15.176-7.19 1.376-.622 2.532-.622 3.529 0 .031.017.047.033.079.049l-25.81 19.09A8.56 8.56 0 0 1 39.051 62l-23.025-3.707a1.94 1.94 0 0 0-1.52.416l-5.823 4.904A1.919 1.919 0 0 0 9.903 67c.427 0 .854-.144 1.218-.447l5.16-4.346 22.186 3.579c3.228.527 6.599-.304 9.241-2.253l27.536-20.352a1.941 1.941 0 0 0 .522-2.46zM41 39c2.94 0 5.69-1.148 7.781-3.224 4.292-4.293 4.292-11.26 0-15.552A10.938 10.938 0 0 0 41 17c-2.94 0-5.69 1.148-7.781 3.224-4.292 4.293-4.292 11.26 0 15.552C35.309 37.852 38.06 39 41 39zm-5.109-16.103A7.169 7.169 0 0 1 41 20.774c1.934 0 3.741.755 5.109 2.123 2.814 2.815 2.814 7.407 0 10.222A7.169 7.169 0 0 1 41 35.242a7.169 7.169 0 0 1-5.109-2.123c-2.814-2.815-2.814-7.407 0-10.222zM53.5 17a8.449 8.449 0 0 0 6.012-2.49c3.317-3.317 3.317-8.703 0-12.02A8.449 8.449 0 0 0 53.5 0a8.449 8.449 0 0 0-6.012 2.49c-3.317 3.317-3.317 8.703 0 12.02A8.411 8.411 0 0 0 53.5 17zM50.136 5.137a4.75 4.75 0 0 1 3.38-1.4 4.75 4.75 0 0 1 3.38 1.4 4.781 4.781 0 0 1 0 6.741 4.75 4.75 0 0 1-3.38 1.401 4.75 4.75 0 0 1-3.38-1.4c-1.854-1.869-1.854-4.89 0-6.742z"/>
    </g>
</svg>
