<svg xmlns="http://www.w3.org/2000/svg" width="91" height="64" viewBox="0 0 91 64">
    <g fill="#F02355" fill-rule="nonzero">
        <path d="M31.797 31.262c-5.33 0-9.683 4.335-9.683 9.683a9.682 9.682 0 0 0 9.683 9.683c5.33 0 9.683-4.334 9.683-9.683 0-5.348-4.353-9.683-9.683-9.683zm0 14.83a5.168 5.168 0 0 1-5.164-5.165 5.156 5.156 0 0 1 5.164-5.164 5.168 5.168 0 0 1 5.164 5.164 5.168 5.168 0 0 1-5.164 5.164zM68.63 40.927c0-5.33-4.335-9.683-9.684-9.683-5.33 0-9.683 4.334-9.683 9.683a9.682 9.682 0 0 0 9.683 9.683c5.35 0 9.683-4.353 9.683-9.683zm-9.684 5.164a5.168 5.168 0 0 1-5.164-5.164 5.156 5.156 0 0 1 5.164-5.164 5.168 5.168 0 0 1 5.165 5.164 5.156 5.156 0 0 1-5.165 5.164z"/>
        <path d="M84.436 16.895C82.886 7.673 75.269.848 65.88.277l-.387-.074c-.13-.019-.258-.037-.387-.037H26.098c-9.83 0-18.149 7.027-19.772 16.673L.37 48.765a12.465 12.465 0 0 0-.277 2.601C.092 58.338 5.754 64 12.726 64c4.205 0 8.134-2.084 10.44-5.515l2.877-3.984a2.252 2.252 0 0 0-.517-3.153 2.252 2.252 0 0 0-3.154.516l-2.914 4.04a8.119 8.119 0 0 1-6.732 3.596c-4.482 0-8.115-3.652-8.115-8.116 0-.553.055-1.125.184-1.733l5.958-32c1.254-7.507 7.71-12.948 15.327-12.948h38.842l.314.056c.092.018.166.018.258.036 7.193.388 13.28 5.81 14.478 12.893l5.976 32a8.63 8.63 0 0 1 .166 1.678c0 4.482-3.652 8.115-8.115 8.115-2.711 0-5.22-1.346-6.787-3.652l-3.099-4.279a2.268 2.268 0 0 0-3.154-.516 2.268 2.268 0 0 0-.516 3.154l3.043 4.224a12.638 12.638 0 0 0 10.476 5.57c6.972 0 12.634-5.663 12.634-12.634 0-.867-.092-1.753-.258-2.564l-5.902-31.89z"/>
        <circle cx="57.084" cy="18.407" r="3.062"/>
        <circle cx="69.607" cy="18.407" r="3.062"/>
        <path d="M27.61 9.333a2.267 2.267 0 0 0-2.268 2.268v4.076h-4.076a2.267 2.267 0 0 0-2.269 2.269 2.267 2.267 0 0 0 2.269 2.268h4.076v4.076a2.267 2.267 0 0 0 2.268 2.27 2.267 2.267 0 0 0 2.269-2.27v-4.076h4.076a2.267 2.267 0 0 0 2.269-2.268 2.267 2.267 0 0 0-2.269-2.269h-4.076v-4.076a2.267 2.267 0 0 0-2.269-2.268z"/>
        <circle cx="63.336" cy="24.659" r="3.062"/>
        <circle cx="63.336" cy="12.136" r="3.062"/>
    </g>
</svg>
