<svg xmlns="http://www.w3.org/2000/svg" width="97" height="93" viewBox="0 0 97 93">
    <g fill="#FFF" fill-rule="nonzero">
        <path d="M95.117 63.18a5.283 5.283 0 0 0-4.306-1.16l-30.994 5.377V56.363c2.39-.145 6.788-.833 9.823-3.857 4.251-4.237 3.918-11.195 3.9-11.488a1.61 1.61 0 0 0-1.524-1.52c-.293-.026-7.273-.348-11.52 3.888a10.92 10.92 0 0 0-.68.751v-5.495c2.39-.145 6.79-.834 9.824-3.858 4.251-4.237 3.918-11.194 3.9-11.488a1.61 1.61 0 0 0-1.524-1.52c-.293-.023-7.273-.348-11.52 3.89a10.92 10.92 0 0 0-.68.751V21.63l9.073-8.86a7.354 7.354 0 0 0 2.244-5.297 7.355 7.355 0 0 0-2.244-5.3h-.001C65.945-.703 61.17-.723 58.2 2.104c-2.973-2.83-7.745-2.807-10.69.068a7.355 7.355 0 0 0-2.243 5.299c0 2.002.797 3.885 2.245 5.299l9.071 8.857v4.788c-.213-.258-.436-.51-.679-.752-4.247-4.24-11.227-3.912-11.52-3.89a1.61 1.61 0 0 0-1.525 1.52c-.017.294-.35 7.252 3.901 11.488 3.035 3.028 7.434 3.715 9.823 3.858v5.496a10.215 10.215 0 0 0-.679-.752c-4.248-4.236-11.224-3.912-11.52-3.888a1.61 1.61 0 0 0-1.525 1.52c-.017.294-.35 7.252 3.901 11.488 3.035 3.028 7.434 3.714 9.823 3.858v9.058l-6.94-6.92a1.617 1.617 0 0 0-1.143-.471H32.333c0-.892-.722-1.612-1.616-1.612H0v3.224h22.633v22.57H0v3.223h30.717c.894 0 1.616-.72 1.616-1.612h4.469l17.284 8.619a5.286 5.286 0 0 0 5.025-.16l35.268-20.517A5.28 5.28 0 0 0 97 67.214c0-1.56-.687-3.03-1.883-4.035zM62.782 45.663c2.179-2.173 5.535-2.757 7.493-2.907-.147 1.948-.73 5.282-2.921 7.468-2.18 2.173-5.536 2.756-7.492 2.906.147-1.947.73-5.281 2.92-7.467zm0-17.72c2.179-2.175 5.535-2.758 7.493-2.908-.147 1.947-.73 5.28-2.921 7.467-2.178 2.171-5.53 2.755-7.487 2.906.152-1.952.737-5.294 2.915-7.465zm-13.736 4.559c-2.18-2.173-2.766-5.52-2.916-7.472 1.953.146 5.296.727 7.488 2.913 2.178 2.171 2.763 5.513 2.915 7.465-1.958-.151-5.309-.735-7.487-2.906zm0 17.722c-2.18-2.173-2.766-5.522-2.916-7.472 1.953.146 5.296.725 7.488 2.911 2.178 2.173 2.763 5.515 2.915 7.467-1.958-.151-5.309-.735-7.487-2.906zM29.1 82.21h-3.233V59.64H29.1v22.57zm20.674-71.743A4.164 4.164 0 0 1 48.5 7.472c0-1.13.453-2.194 1.272-2.995a4.449 4.449 0 0 1 3.119-1.26c1.127 0 2.257.421 3.117 1.26l1.062 1.038a1.616 1.616 0 0 0 2.26 0l1.062-1.038c1.719-1.677 4.514-1.677 6.232-.002a4.157 4.157 0 0 1 .004 5.99l-8.428 8.23-8.426-8.228zM92.75 68.978L57.482 89.495c-.598.35-1.327.371-1.95.062l-17.624-8.788a1.616 1.616 0 0 0-.725-.17h-4.85V61.252h15.498l12.737 12.702c.55.548.865 1.307.865 2.084a2.954 2.954 0 0 1-2.955 2.947c-.778 0-1.54-.314-2.09-.862l-8.362-8.338-2.286 2.28 8.362 8.337a6.156 6.156 0 0 0 4.376 1.807c3.411 0 6.189-2.77 6.189-6.17a6.124 6.124 0 0 0-1.813-4.365l-1.31-1.306 29.819-5.171a2.03 2.03 0 0 1 1.671.45 2.038 2.038 0 0 1-.284 3.33z"/>
        <path d="M34.125 5h-3.25A4.881 4.881 0 0 1 26 9.875v3.25A4.881 4.881 0 0 1 30.875 18h3.25A4.881 4.881 0 0 1 39 13.125v-3.25A4.881 4.881 0 0 1 34.125 5zM32.5 13.175a8.106 8.106 0 0 0-1.675-1.675A8.106 8.106 0 0 0 32.5 9.825a8.106 8.106 0 0 0 1.675 1.675 8.106 8.106 0 0 0-1.675 1.675zM24.125 19h-3.25A4.881 4.881 0 0 1 16 23.875v3.25A4.881 4.881 0 0 1 20.875 32h3.25A4.881 4.881 0 0 1 29 27.125v-3.25A4.881 4.881 0 0 1 24.125 19zM22.5 27.175a8.106 8.106 0 0 0-1.675-1.675 8.106 8.106 0 0 0 1.675-1.675 8.106 8.106 0 0 0 1.675 1.675 8.106 8.106 0 0 0-1.675 1.675zM86.125 11h-3.25A4.881 4.881 0 0 1 78 15.875v3.25A4.881 4.881 0 0 1 82.875 24h3.25A4.881 4.881 0 0 1 91 19.125v-3.25A4.881 4.881 0 0 1 86.125 11zM84.5 19.175a8.106 8.106 0 0 0-1.675-1.675 8.106 8.106 0 0 0 1.675-1.675 8.106 8.106 0 0 0 1.675 1.675 8.106 8.106 0 0 0-1.675 1.675zM29 50h3v3h-3zM23 50h3v3h-3zM16 50h3v3h-3z"/>
    </g>
</svg>
