<svg xmlns="http://www.w3.org/2000/svg" width="85" height="85" viewBox="0 0 85 85">
    <g fill="#FFF" fill-rule="nonzero">
        <path d="M14.123 75.378a1.673 1.673 0 0 0-1.173-.485c-.437 0-.865.177-1.174.485a1.668 1.668 0 0 0-.486 1.172c0 .436.177.863.486 1.171.309.308.737.486 1.174.486.436 0 .865-.177 1.173-.486.31-.308.487-.735.487-1.171 0-.436-.178-.863-.487-1.172zM77.948 30.311a1.67 1.67 0 0 0-1.173-.485c-.437 0-.865.177-1.174.485a1.669 1.669 0 0 0-.487 1.172c0 .436.178.863.487 1.171.309.308.737.486 1.174.486a1.662 1.662 0 0 0 1.662-1.657c0-.436-.178-.863-.489-1.172z"/>
        <path d="M84.513.485A1.663 1.663 0 0 0 83.339 0l-40.84.002c-.916 0-1.66.742-1.66 1.657v4.738l-15.736 4.209a1.656 1.656 0 0 0-1.174 2.029l8.156 30.378-7.055 7.042a4.981 4.981 0 0 0-4.112-2.17H4.981c-2.746 0-4.98 2.23-4.98 4.971v27.008c0 2.74 2.234 4.97 4.98 4.97H20.92a4.987 4.987 0 0 0 4.833-3.774l1.974 1.718a8.374 8.374 0 0 0 5.498 2.056H83.34c.917 0 1.66-.741 1.66-1.656V1.657c0-.44-.175-.861-.486-1.172zM22.578 79.864a1.66 1.66 0 0 1-1.66 1.657H4.981a1.66 1.66 0 0 1-1.66-1.657V52.857a1.66 1.66 0 0 1 1.66-1.657h6.309v19.087c0 .915.743 1.656 1.66 1.656.917 0 1.66-.741 1.66-1.656V51.2h6.308c.916 0 1.66.743 1.66 1.657v27.007zm4.988-66.486l13.274-3.55v6.14l-1.113.297a1.66 1.66 0 0 0-1.174 2.03 4.465 4.465 0 0 1-3.16 5.464 1.66 1.66 0 0 0-1.174 2.032l6.471 23.916h-3.332l-1.717-6.705a1.653 1.653 0 0 0-.278-.58l-7.797-29.044zM40.84 23.566v13.981l-3.028-11.19a7.772 7.772 0 0 0 3.028-2.79zM64.69 81.52H33.224a5.05 5.05 0 0 1-3.316-1.24l-4.01-3.49V53.875l7.249-7.234 1.314 5.134a1.66 1.66 0 0 0 1.609 1.246l32.639.002a2.325 2.325 0 0 1 2.324 2.32c0 1.279-1.042 2.32-2.324 2.32H51.984c-.916 0-1.66.741-1.66 1.656 0 .915.744 1.657 1.66 1.657h21.921a2.325 2.325 0 0 1 2.324 2.32c0 1.28-1.042 2.32-2.324 2.32h-21.92c-.917 0-1.66.742-1.66 1.657s.743 1.657 1.66 1.657h18.368a2.325 2.325 0 0 1 2.324 2.32c0 1.278-1.042 2.319-2.324 2.319H51.984c-.916 0-1.66.742-1.66 1.657s.744 1.657 1.66 1.657H64.69a2.325 2.325 0 0 1 2.324 2.32 2.325 2.325 0 0 1-2.324 2.318zm16.989 0H69.832a5.59 5.59 0 0 0 .503-2.32 5.59 5.59 0 0 0-.503-2.319h.52c3.113 0 5.645-2.527 5.645-5.633 0-.906-.216-1.762-.599-2.522 2.39-.655 4.151-2.841 4.151-5.431a5.596 5.596 0 0 0-1.114-3.356v-21c0-.915-.743-1.657-1.66-1.657-.917 0-1.66.742-1.66 1.657v18.854a5.656 5.656 0 0 0-1.21-.132h-.055a5.59 5.59 0 0 0 .503-2.32c0-3.106-2.532-5.633-5.644-5.633H66.04c2.834-1.212 4.824-4.024 4.824-7.29 0-4.373-3.564-7.93-7.945-7.93-4.38 0-7.945 3.557-7.945 7.93 0 3.266 1.99 6.078 4.824 7.29h-9.075V18.203a7.807 7.807 0 0 0 5.952-5.94h12.488a7.807 7.807 0 0 0 5.952 5.94v5.152c0 .915.743 1.657 1.66 1.657.917 0 1.66-.742 1.66-1.657v-6.63c0-.916-.743-1.658-1.66-1.658a4.47 4.47 0 0 1-4.47-4.461c0-.915-.743-1.657-1.66-1.657H55.193c-.917 0-1.66.742-1.66 1.657a4.47 4.47 0 0 1-4.47 4.461c-.917 0-1.66.742-1.66 1.657v32.984H44.16V3.316l37.519-.002V81.52zm-18.76-34.487a4.625 4.625 0 0 1-4.624-4.616 4.626 4.626 0 0 1 9.249 0 4.626 4.626 0 0 1-4.625 4.616z"/>
    </g>
</svg>
