<svg xmlns="http://www.w3.org/2000/svg" width="75" height="69" viewBox="0 0 75 69">
    <g fill="#F02355" fill-rule="nonzero">
        <path d="M64.793 10.015C58.31 3.57 49.686.017 40.523.017c-9.333 0-18.065 3.66-24.58 10.305a1.846 1.846 0 0 0 .031 2.602c.724.705 1.894.69 2.618-.03 5.822-5.926 13.599-9.187 21.93-9.187 16.895-.015 30.632 13.642 30.632 30.438 0 16.797-13.737 30.454-30.632 30.454-16.894 0-30.631-13.657-30.631-30.454v-.382l3.05 3.031a1.86 1.86 0 0 0 1.308.536c.478 0 .94-.184 1.31-.536a1.831 1.831 0 0 0 0-2.603l-6.192-6.17a1.857 1.857 0 0 0-2.618 0l-6.206 6.17a1.831 1.831 0 0 0 0 2.603c.724.72 1.894.72 2.618 0l3.05-3.031v.382c0 9.11 3.572 17.685 10.056 24.13 6.483 6.447 15.107 9.999 24.27 9.999 9.164 0 17.788-3.552 24.272-9.998 6.483-6.446 10.04-15.02 10.04-24.13s-3.572-17.685-10.056-24.13z"/>
        <path d="M50.348 21.728l-22.7 22.553a1.831 1.831 0 0 0 0 2.603 1.86 1.86 0 0 0 1.309.536c.477 0 .939-.184 1.309-.536l22.7-22.568a1.831 1.831 0 0 0 0-2.603 1.872 1.872 0 0 0-2.618.015zM44.403 36.917a6.562 6.562 0 0 0 0 9.294 6.601 6.601 0 0 0 4.682 1.929 6.601 6.601 0 0 0 4.682-1.93 6.562 6.562 0 0 0 0-9.293 6.601 6.601 0 0 0-4.682-1.93 6.628 6.628 0 0 0-4.682 1.93zm6.746 6.706a2.883 2.883 0 0 1-2.064.842c-.785 0-1.51-.306-2.064-.842a2.89 2.89 0 0 1 0-4.103 2.883 2.883 0 0 1 2.064-.842c.785 0 1.51.306 2.064.842a2.89 2.89 0 0 1 0 4.103zM32.021 20.09a6.601 6.601 0 0 0-4.681 1.93 6.525 6.525 0 0 0-1.94 4.654c0 1.76.692 3.414 1.94 4.654a6.601 6.601 0 0 0 4.681 1.93 6.601 6.601 0 0 0 4.682-1.93 6.525 6.525 0 0 0 1.94-4.654c0-1.761-.693-3.415-1.94-4.655a6.628 6.628 0 0 0-4.682-1.929zm2.064 8.635a2.883 2.883 0 0 1-2.064.843c-.785 0-1.509-.307-2.063-.843a2.85 2.85 0 0 1-.847-2.051c0-.781.308-1.5.847-2.052a2.883 2.883 0 0 1 2.063-.842c.786 0 1.51.306 2.064.842a2.85 2.85 0 0 1 .847 2.052c0 .765-.293 1.5-.847 2.051z"/>
    </g>
</svg>
