<svg width="17" height="16" viewBox="0 0 17 16" xmlns="http://www.w3.org/2000/svg"><path d="M2.454 0h11.893A2.06 2.06 0 0 1 16.4 2.055v11.893c0 1.13-.924 2.052-2.053 2.052H2.454A2.06 2.06 0 0 1 .4 13.947V2.054A2.06 2.06 0 0 1 2.454.001zm9.602 1.778a.723.723 0 0 0-.72.72v1.724c0 .397.323.721.72.721h1.808c.396 0 .72-.324.72-.72V2.498a.723.723 0 0 0-.72-.721h-1.808zm2.535 4.988h-1.408c.134.436.206.896.206 1.374 0 2.66-2.227 4.818-4.974 4.818-2.746 0-4.974-2.158-4.974-4.818a4.7 4.7 0 0 1 .206-1.374H2.18v6.76c0 .35.285.634.635.634h11.142c.35 0 .635-.285.635-.635V6.766zM8.415 4.852c-1.774 0-3.213 1.394-3.213 3.114 0 1.719 1.44 3.114 3.213 3.114 1.775 0 3.214-1.395 3.214-3.114 0-1.72-1.44-3.114-3.214-3.114z" fill="#D30F3F"/></svg>