<svg width="10" height="17" viewBox="0 0 10 17" xmlns="http://www.w3.org/2000/svg"><path d="M1.113 9.054h1.863v7.672c0 .151.123.274.274.274h3.16a.274.274 0 0 0 .274-.274V9.09h2.142c.14 0 .257-.104.273-.243l.325-2.824a.274.274 0 0 0-.272-.305H6.684v-1.77c0-.535.288-.805.854-.805h1.614a.274.274 0 0 0 .274-.274V.276a.274.274 0 0 0-.274-.274H6.928A2.18 2.18 0 0 0 6.827 0C6.44 0 5.1.076 4.04 1.05c-1.173 1.08-1.01 2.373-.971 2.597v2.07H1.113a.274.274 0 0 0-.274.275V8.78c0 .151.122.274.274.274z" fill="#D30F3F"/></svg>