<svg width="19" height="15" viewBox="0 0 19 15" xmlns="http://www.w3.org/2000/svg"><path d="M18.551 1.736a6.94 6.94 0 0 1-.885.322c.357-.404.63-.88.797-1.401a.295.295 0 0 0-.432-.344 6.968 6.968 0 0 1-2.06.814 3.95 3.95 0 0 0-2.75-1.121 3.934 3.934 0 0 0-3.899 4.437A10.061 10.061 0 0 1 2.417.78a.295.295 0 0 0-.484.038A3.928 3.928 0 0 0 1.4 2.794c0 .947.338 1.845.936 2.547a3.329 3.329 0 0 1-.526-.235.295.295 0 0 0-.439.252v.052c0 1.414.76 2.686 1.923 3.38-.1-.01-.2-.025-.299-.044a.295.295 0 0 0-.336.38 3.929 3.929 0 0 0 2.879 2.635 6.953 6.953 0 0 1-3.717 1.06 7.11 7.11 0 0 1-.832-.048.296.296 0 0 0-.194.541 10.598 10.598 0 0 0 5.73 1.68c4.002 0 6.505-1.887 7.9-3.47 1.74-1.973 2.738-4.585 2.738-7.167 0-.108-.002-.216-.005-.325a7.64 7.64 0 0 0 1.758-1.862.295.295 0 0 0-.365-.434z" fill="#D30F3F"/></svg>