<svg width="13" height="18" viewBox="0 0 13 18" xmlns="http://www.w3.org/2000/svg"><path d="M12.279 10.004a2.912 2.912 0 0 0-1.121-1.107c-.326-.187-.8-.363-1.417-.52.575-.195 1.04-.438 1.388-.738.353-.303.619-.648.803-1.037a2.81 2.81 0 0 0 .286-1.237c0-.596-.177-1.145-.53-1.647-.355-.501-.856-.884-1.511-1.15a4.665 4.665 0 0 0-.887-.245V0H7.064v2.167H5.63V0H3.402v2.167h-3.4v1.819h.513c.347 0 .585.032.705.096a.555.555 0 0 1 .262.255c.052.107.076.356.076.747v7.342c0 .386-.024.628-.076.737a.556.556 0 0 1-.262.26c-.12.058-.358.087-.705.087H0v1.818h3.401v2.167H5.63v-2.167h1.433v2.167h2.226v-2.352c.378-.071.707-.165.987-.277.769-.308 1.364-.755 1.785-1.343.426-.59.634-1.234.634-1.933 0-.581-.138-1.11-.416-1.586zM4.815 4.288h1.442c.843 0 1.431.052 1.758.16.325.101.577.276.748.52.175.248.26.545.26.89 0 .332-.092.624-.271.88-.186.257-.458.446-.818.57-.363.127-.92.191-1.675.191H4.817l-.002-3.211zm4.076 8.14c-.26.324-.566.542-.937.644-.365.103-.828.156-1.388.156h-.96c-.32 0-.516-.018-.59-.053-.074-.03-.123-.093-.156-.18-.022-.072-.04-.306-.044-.713v-2.85h1.702c.753 0 1.302.069 1.668.209.363.138.64.342.817.615.184.268.278.595.278.989 0 .461-.13.852-.39 1.183z" fill="#D30F3F"/></svg>